<svg xmlns="http://www.w3.org/2000/svg" width="1024" height="1024" viewBox="0 0 1024 1024"><g transform="translate(0,0)" style="color:#0080FF"><rect width="128" height="128" fill="#111"/><rect x="16" y="16" width="96" height="96" fill="currentColor"/></g><g transform="translate(128,0)" style="color:#0080FF"><rect width="128" height="128" fill="#111"/><polygon points="64,16 112,112 16,112" fill="currentColor"/></g><g transform="translate(256,0)" style="color:#0080FF"><rect width="128" height="128" fill="#111"/><circle cx="64" cy="64" r="48" fill="currentColor"/></g><g transform="translate(384,0)" style="color:#0080FF"><rect width="128" height="128" fill="#111"/><rect x="16" y="16" width="96" height="40" fill="currentColor"/><rect x="16" y="72" width="96" height="40" fill="currentColor"/></g><g transform="translate(512,0)" style="color:#0080FF"><rect width="128" height="128" fill="#111"/><rect x="20" y="20" width="88" height="32" fill="none" stroke="currentColor" stroke-width="8"/><rect x="20" y="76" width="88" height="32" fill="none" stroke="currentColor" stroke-width="8"/></g><g transform="translate(640,0)" style="color:#0080FF"><rect width="128" height="128" fill="#111"/><polygon points="64,20 108,108 20,108" fill="none" stroke="currentColor" stroke-width="8"/></g><g transform="translate(768,0)" style="color:#0080FF"><rect width="128" height="128" fill="#111"/><circle cx="64" cy="64" r="44" fill="none" stroke="currentColor" stroke-width="8"/></g><g transform="translate(896,0)" style="color:#0080FF"><rect width="128" height="128" fill="#111"/><rect x="20" y="20" width="88" height="88" fill="none" stroke="currentColor" stroke-width="8"/></g><g transform="translate(0,128)" style="color:#4CC4FF"><rect width="128" height="128" fill="#111"/><rect x="16" y="16" width="96" height="96" fill="currentColor"/></g><g transform="translate(128,128)" style="color:#4CC4FF"><rect width="128" height="128" fill="#111"/><polygon points="64,16 112,112 16,112" fill="currentColor"/></g><g transform="translate(256,128)" style="color:#4CC4FF"><rect width="128" height="128" fill="#111"/><circle cx="64" cy="64" r="48" fill="currentColor"/></g><g transform="translate(384,128)" style="color:#4CC4FF"><rect width="128" height="128" fill="#111"/><rect x="16" y="16" width="96" height="40" fill="currentColor"/><rect x="16" y="72" width="96" height="40" fill="currentColor"/></g><g transform="translate(512,128)" style="color:#4CC4FF"><rect width="128" height="128" fill="#111"/><rect x="20" y="20" width="88" height="32" fill="none" stroke="currentColor" stroke-width="8"/><rect x="20" y="76" width="88" height="32" fill="none" stroke="currentColor" stroke-width="8"/></g><g transform="translate(640,128)" style="color:#4CC4FF"><rect width="128" height="128" fill="#111"/><polygon points="64,20 108,108 20,108" fill="none" stroke="currentColor" stroke-width="8"/></g><g transform="translate(768,128)" style="color:#4CC4FF"><rect width="128" height="128" fill="#111"/><circle cx="64" cy="64" r="44" fill="none" stroke="currentColor" stroke-width="8"/></g><g transform="translate(896,128)" style="color:#4CC4FF"><rect width="128" height="128" fill="#111"/><rect x="20" y="20" width="88" height="88" fill="none" stroke="currentColor" stroke-width="8"/></g><g transform="translate(0,256)" style="color:#99EEFF"><rect width="128" height="128" fill="#111"/><rect x="16" y="16" width="96" height="96" fill="currentColor"/></g><g transform="translate(128,256)" style="color:#99EEFF"><rect width="128" height="128" fill="#111"/><polygon points="64,16 112,112 16,112" fill="currentColor"/></g><g transform="translate(256,256)" style="color:#99EEFF"><rect width="128" height="128" fill="#111"/><circle cx="64" cy="64" r="48" fill="currentColor"/></g><g transform="translate(384,256)" style="color:#99EEFF"><rect width="128" height="128" fill="#111"/><rect x="16" y="16" width="96" height="40" fill="currentColor"/><rect x="16" y="72" width="96" height="40" fill="currentColor"/></g><g transform="translate(512,256)" style="color:#99EEFF"><rect width="128" height="128" fill="#111"/><rect x="20" y="20" width="88" height="32" fill="none" stroke="currentColor" stroke-width="8"/><rect x="20" y="76" width="88" height="32" fill="none" stroke="currentColor" stroke-width="8"/></g><g transform="translate(640,256)" style="color:#99EEFF"><rect width="128" height="128" fill="#111"/><polygon points="64,20 108,108 20,108" fill="none" stroke="currentColor" stroke-width="8"/></g><g transform="translate(768,256)" style="color:#99EEFF"><rect width="128" height="128" fill="#111"/><circle cx="64" cy="64" r="44" fill="none" stroke="currentColor" stroke-width="8"/></g><g transform="translate(896,256)" style="color:#99EEFF"><rect width="128" height="128" fill="#111"/><rect x="20" y="20" width="88" height="88" fill="none" stroke="currentColor" stroke-width="8"/></g><g transform="translate(0,384)" style="color:#CCFFFF"><rect width="128" height="128" fill="#111"/><rect x="16" y="16" width="96" height="96" fill="currentColor"/></g><g transform="translate(128,384)" style="color:#CCFFFF"><rect width="128" height="128" fill="#111"/><polygon points="64,16 112,112 16,112" fill="currentColor"/></g><g transform="translate(256,384)" style="color:#CCFFFF"><rect width="128" height="128" fill="#111"/><circle cx="64" cy="64" r="48" fill="currentColor"/></g><g transform="translate(384,384)" style="color:#CCFFFF"><rect width="128" height="128" fill="#111"/><rect x="16" y="16" width="96" height="40" fill="currentColor"/><rect x="16" y="72" width="96" height="40" fill="currentColor"/></g><g transform="translate(512,384)" style="color:#CCFFFF"><rect width="128" height="128" fill="#111"/><rect x="20" y="20" width="88" height="32" fill="none" stroke="currentColor" stroke-width="8"/><rect x="20" y="76" width="88" height="32" fill="none" stroke="currentColor" stroke-width="8"/></g><g transform="translate(640,384)" style="color:#CCFFFF"><rect width="128" height="128" fill="#111"/><polygon points="64,20 108,108 20,108" fill="none" stroke="currentColor" stroke-width="8"/></g><g transform="translate(768,384)" style="color:#CCFFFF"><rect width="128" height="128" fill="#111"/><circle cx="64" cy="64" r="44" fill="none" stroke="currentColor" stroke-width="8"/></g><g transform="translate(896,384)" style="color:#CCFFFF"><rect width="128" height="128" fill="#111"/><rect x="20" y="20" width="88" height="88" fill="none" stroke="currentColor" stroke-width="8"/></g><g transform="translate(0,512)" style="color:#FFFFCC"><rect width="128" height="128" fill="#111"/><rect x="16" y="16" width="96" height="96" fill="currentColor"/></g><g transform="translate(128,512)" style="color:#FFFFCC"><rect width="128" height="128" fill="#111"/><polygon points="64,16 112,112 16,112" fill="currentColor"/></g><g transform="translate(256,512)" style="color:#FFFFCC"><rect width="128" height="128" fill="#111"/><circle cx="64" cy="64" r="48" fill="currentColor"/></g><g transform="translate(384,512)" style="color:#FFFFCC"><rect width="128" height="128" fill="#111"/><rect x="16" y="16" width="96" height="40" fill="currentColor"/><rect x="16" y="72" width="96" height="40" fill="currentColor"/></g><g transform="translate(512,512)" style="color:#FFFFCC"><rect width="128" height="128" fill="#111"/><rect x="20" y="20" width="88" height="32" fill="none" stroke="currentColor" stroke-width="8"/><rect x="20" y="76" width="88" height="32" fill="none" stroke="currentColor" stroke-width="8"/></g><g transform="translate(640,512)" style="color:#FFFFCC"><rect width="128" height="128" fill="#111"/><polygon points="64,20 108,108 20,108" fill="none" stroke="currentColor" stroke-width="8"/></g><g transform="translate(768,512)" style="color:#FFFFCC"><rect width="128" height="128" fill="#111"/><circle cx="64" cy="64" r="44" fill="none" stroke="currentColor" stroke-width="8"/></g><g transform="translate(896,512)" style="color:#FFFFCC"><rect width="128" height="128" fill="#111"/><rect x="20" y="20" width="88" height="88" fill="none" stroke="currentColor" stroke-width="8"/></g><g transform="translate(0,640)" style="color:#FFEE99"><rect width="128" height="128" fill="#111"/><rect x="16" y="16" width="96" height="96" fill="currentColor"/></g><g transform="translate(128,640)" style="color:#FFEE99"><rect width="128" height="128" fill="#111"/><polygon points="64,16 112,112 16,112" fill="currentColor"/></g><g transform="translate(256,640)" style="color:#FFEE99"><rect width="128" height="128" fill="#111"/><circle cx="64" cy="64" r="48" fill="currentColor"/></g><g transform="translate(384,640)" style="color:#FFEE99"><rect width="128" height="128" fill="#111"/><rect x="16" y="16" width="96" height="40" fill="currentColor"/><rect x="16" y="72" width="96" height="40" fill="currentColor"/></g><g transform="translate(512,640)" style="color:#FFEE99"><rect width="128" height="128" fill="#111"/><rect x="20" y="20" width="88" height="32" fill="none" stroke="currentColor" stroke-width="8"/><rect x="20" y="76" width="88" height="32" fill="none" stroke="currentColor" stroke-width="8"/></g><g transform="translate(640,640)" style="color:#FFEE99"><rect width="128" height="128" fill="#111"/><polygon points="64,20 108,108 20,108" fill="none" stroke="currentColor" stroke-width="8"/></g><g transform="translate(768,640)" style="color:#FFEE99"><rect width="128" height="128" fill="#111"/><circle cx="64" cy="64" r="44" fill="none" stroke="currentColor" stroke-width="8"/></g><g transform="translate(896,640)" style="color:#FFEE99"><rect width="128" height="128" fill="#111"/><rect x="20" y="20" width="88" height="88" fill="none" stroke="currentColor" stroke-width="8"/></g><g transform="translate(0,768)" style="color:#FFC44C"><rect width="128" height="128" fill="#111"/><rect x="16" y="16" width="96" height="96" fill="currentColor"/></g><g transform="translate(128,768)" style="color:#FFC44C"><rect width="128" height="128" fill="#111"/><polygon points="64,16 112,112 16,112" fill="currentColor"/></g><g transform="translate(256,768)" style="color:#FFC44C"><rect width="128" height="128" fill="#111"/><circle cx="64" cy="64" r="48" fill="currentColor"/></g><g transform="translate(384,768)" style="color:#FFC44C"><rect width="128" height="128" fill="#111"/><rect x="16" y="16" width="96" height="40" fill="currentColor"/><rect x="16" y="72" width="96" height="40" fill="currentColor"/></g><g transform="translate(512,768)" style="color:#FFC44C"><rect width="128" height="128" fill="#111"/><rect x="20" y="20" width="88" height="32" fill="none" stroke="currentColor" stroke-width="8"/><rect x="20" y="76" width="88" height="32" fill="none" stroke="currentColor" stroke-width="8"/></g><g transform="translate(640,768)" style="color:#FFC44C"><rect width="128" height="128" fill="#111"/><polygon points="64,20 108,108 20,108" fill="none" stroke="currentColor" stroke-width="8"/></g><g transform="translate(768,768)" style="color:#FFC44C"><rect width="128" height="128" fill="#111"/><circle cx="64" cy="64" r="44" fill="none" stroke="currentColor" stroke-width="8"/></g><g transform="translate(896,768)" style="color:#FFC44C"><rect width="128" height="128" fill="#111"/><rect x="20" y="20" width="88" height="88" fill="none" stroke="currentColor" stroke-width="8"/></g><g transform="translate(0,896)" style="color:#FF8000"><rect width="128" height="128" fill="#111"/><rect x="16" y="16" width="96" height="96" fill="currentColor"/></g><g transform="translate(128,896)" style="color:#FF8000"><rect width="128" height="128" fill="#111"/><polygon points="64,16 112,112 16,112" fill="currentColor"/></g><g transform="translate(256,896)" style="color:#FF8000"><rect width="128" height="128" fill="#111"/><circle cx="64" cy="64" r="48" fill="currentColor"/></g><g transform="translate(384,896)" style="color:#FF8000"><rect width="128" height="128" fill="#111"/><rect x="16" y="16" width="96" height="40" fill="currentColor"/><rect x="16" y="72" width="96" height="40" fill="currentColor"/></g><g transform="translate(512,896)" style="color:#FF8000"><rect width="128" height="128" fill="#111"/><rect x="20" y="20" width="88" height="32" fill="none" stroke="currentColor" stroke-width="8"/><rect x="20" y="76" width="88" height="32" fill="none" stroke="currentColor" stroke-width="8"/></g><g transform="translate(640,896)" style="color:#FF8000"><rect width="128" height="128" fill="#111"/><polygon points="64,20 108,108 20,108" fill="none" stroke="currentColor" stroke-width="8"/></g><g transform="translate(768,896)" style="color:#FF8000"><rect width="128" height="128" fill="#111"/><circle cx="64" cy="64" r="44" fill="none" stroke="currentColor" stroke-width="8"/></g><g transform="translate(896,896)" style="color:#FF8000"><rect width="128" height="128" fill="#111"/><rect x="20" y="20" width="88" height="88" fill="none" stroke="currentColor" stroke-width="8"/></g></svg>